<svg width="24" height="24" viewBox="0 0 24 24" fill="none" xmlns="http://www.w3.org/2000/svg">
<path d="M2.20604 21.0991H21.794C23.0104 21.0991 24 20.1094 24 18.8929V5.10677C24 3.89025 23.0104 2.90063 21.794 2.90063H2.20604C0.989616 2.90063 0 3.89035 0 5.10677V18.8929C0 20.1094 0.989616 21.0991 2.20604 21.0991ZM1.43672 5.10677C1.43672 4.68189 1.78163 4.33736 2.20604 4.33736H21.794C22.2186 4.33736 22.5633 4.68189 22.5633 5.10677V18.8929C22.5633 19.3179 22.2185 19.6624 21.794 19.6624H2.20604C1.78154 19.6624 1.43672 19.3179 1.43672 18.8929V5.10677ZM4.28508 18.6464H2.84835V5.41433L11.8206 11.2393C11.9262 11.3078 12.0738 11.3079 12.1796 11.2391L21.1517 5.41433V18.6464H19.715V8.06001L12.9617 12.4443C12.6752 12.6302 12.3426 12.7284 12 12.7284C11.6574 12.7284 11.3248 12.6302 11.0384 12.4444L4.28508 8.06001V18.6464Z" fill="#CCC5B9"/>
</svg>
