<svg width="24" height="24" viewBox="0 0 24 24" fill="none" xmlns="http://www.w3.org/2000/svg">
<g clip-path="url(#clip0_3_100)">
<path d="M21.3333 0H2.66667C1.19391 0 0 1.19391 0 2.66667V21.3333C0 22.8061 1.19391 24 2.66667 24H21.3333C22.8061 24 24 22.8061 24 21.3333V2.66667C24 1.19391 22.8061 0 21.3333 0Z" fill="#CCC5B9"/>
<path fill-rule="evenodd" clip-rule="evenodd" d="M20.1547 4.47236V7.57585L18.3128 7.58065C16.8689 7.58065 16.5907 8.26659 16.5907 9.26911V11.49H20.03L19.5839 14.9628H16.5907V23.9999H13.0032V14.9628H10V11.49H13.0032V8.92854C13.0032 5.95455 14.8159 4.33325 17.4733 4.33325C18.7402 4.33325 19.8333 4.42919 20.1547 4.47236Z" fill="#8B482E"/>
</g>
<defs>
<clipPath id="clip0_3_100">
<rect width="24" height="24" fill="white"/>
</clipPath>
</defs>
</svg>
