<svg width="138" height="67" viewBox="0 0 138 67" fill="none" xmlns="http://www.w3.org/2000/svg">
<circle cx="13" cy="48" r="4" stroke="#CCC5B9"/>
<circle cx="13" cy="52.5" r="4" stroke="#CCC5B9"/>
<circle cx="8.5" cy="48" r="4" stroke="#CCC5B9"/>
<circle cx="13" cy="43.5" r="4" stroke="#CCC5B9"/>
<circle cx="17.5" cy="48" r="4" stroke="#CCC5B9"/>
<path d="M14.516 33.978C12.0587 33.978 9.88 33.4967 7.98 32.534C6.08 31.5967 4.58533 30.3047 3.496 28.658C2.432 26.986 1.9 25.0987 1.9 22.996C1.9 21.6787 2.128 20.3233 2.584 18.93C2.83733 18.1953 3.20467 17.5493 3.686 16.992C4.16733 16.4347 4.674 15.9787 5.206 15.624C5.738 15.2693 6.194 15.0413 6.574 14.94C6.85267 14.864 7.03 14.826 7.106 14.826C7.28333 14.826 7.22 14.9527 6.916 15.206C6.63733 15.434 6.28267 15.6873 5.852 15.966C5.37067 16.2953 4.81333 16.7893 4.18 17.448C3.54667 18.1067 3.116 19.082 2.888 20.374C2.83733 20.678 2.79933 20.982 2.774 21.286C2.74867 21.59 2.736 21.8813 2.736 22.16C2.736 23.8067 3.10333 25.2633 3.838 26.53C4.598 27.7713 5.57333 28.81 6.764 29.646C7.95467 30.482 9.24667 31.1153 10.64 31.546C12.0587 31.9767 13.414 32.192 14.706 32.192C16.758 32.192 18.658 31.7867 20.406 30.976C22.154 30.1907 23.75 29.1013 25.194 27.708C26.6633 26.3147 27.9807 24.7187 29.146 22.92C30.3113 21.096 31.3373 19.1707 32.224 17.144C32.0213 17.144 31.73 17.144 31.35 17.144C30.97 17.1187 30.552 17.106 30.096 17.106C29.412 17.106 28.6647 17.1567 27.854 17.258C27.0687 17.334 26.3213 17.524 25.612 17.828C24.928 18.1067 24.3707 18.55 23.94 19.158C23.788 19.3353 23.6487 19.424 23.522 19.424C23.4207 19.424 23.3447 19.3607 23.294 19.234C23.2433 19.1073 23.256 18.968 23.332 18.816C23.94 17.4733 24.776 16.5613 25.84 16.08C26.904 15.5987 28.0947 15.358 29.412 15.358C29.9693 15.358 30.5267 15.396 31.084 15.472C31.6667 15.5227 32.2367 15.5987 32.794 15.7C33.25 14.6107 33.7567 13.5213 34.314 12.432C34.8713 11.3427 35.416 10.3293 35.948 9.392C36.48 8.45467 36.9613 7.66933 37.392 7.036C37.8227 6.37733 38.1267 5.94667 38.304 5.744C36.6827 4.93333 35.0107 4.186 33.288 3.502C31.5653 2.818 29.7667 2.34933 27.892 2.096C27.512 2.04533 27.132 2.00733 26.752 1.982C26.372 1.95667 26.0047 1.944 25.65 1.944C23.978 1.944 22.4833 2.21 21.166 2.742C19.8487 3.274 18.734 3.958 17.822 4.794C16.91 5.60467 16.2133 6.47867 15.732 7.416C15.2507 8.328 15.01 9.18933 15.01 10C15.01 11.064 15.39 11.824 16.15 12.28C16.606 12.5587 17.062 12.7613 17.518 12.888C17.9993 13.0147 18.4553 13.078 18.886 13.078C19.8487 13.078 20.7227 12.8753 21.508 12.47C22.2933 12.0647 22.914 11.6213 23.37 11.14C23.8513 10.6333 24.092 10.2533 24.092 10C24.092 9.74667 24.168 9.53133 24.32 9.354C24.472 9.15133 24.5987 9.05 24.7 9.05C24.8013 9.05 24.852 9.13867 24.852 9.316C24.852 9.44267 24.814 9.62 24.738 9.848C24.358 11.1653 23.5853 12.1787 22.42 12.888C21.28 13.572 20.0767 13.914 18.81 13.914C18.278 13.914 17.746 13.8507 17.214 13.724C16.7073 13.5973 16.226 13.4073 15.77 13.154C14.934 12.6727 14.3133 12.0647 13.908 11.33C13.5027 10.57 13.3 9.75933 13.3 8.898C13.3 7.91 13.5533 6.89667 14.06 5.858C14.5667 4.794 15.2887 3.83133 16.226 2.97C17.1887 2.08333 18.3413 1.374 19.684 0.841998C21.0267 0.284666 22.5467 0.00599957 24.244 0.00599957C25.536 0.00599957 26.98 0.221332 28.576 0.651998C30.6787 1.20933 32.6167 1.906 34.39 2.742C36.1633 3.55267 37.6327 4.32533 38.798 5.06C38.9753 4.85733 39.2667 4.59133 39.672 4.262C40.0773 3.93267 40.5967 3.768 41.23 3.768C41.458 3.768 41.724 3.806 42.028 3.882C42.256 3.958 42.4207 4.08467 42.522 4.262C42.6487 4.43933 42.712 4.61667 42.712 4.794C42.712 5.022 42.636 5.136 42.484 5.136C42.3827 5.136 42.2307 5.022 42.028 4.794C41.8507 4.718 41.6607 4.68 41.458 4.68C41.1287 4.68 40.812 4.76867 40.508 4.946C40.204 5.12333 39.938 5.31333 39.71 5.516C40.166 5.744 40.7613 6.01 41.496 6.314C42.256 6.618 43.092 6.922 44.004 7.226C44.916 7.53 45.828 7.78333 46.74 7.986C47.6773 8.16333 48.5387 8.252 49.324 8.252C49.9827 8.252 50.578 8.16333 51.11 7.986C51.642 7.80867 52.022 7.47933 52.25 6.998C52.4527 6.51666 52.6427 6.276 52.82 6.276C52.9467 6.276 53.01 6.41533 53.01 6.694C53.01 6.77 53.01 6.846 53.01 6.922C53.01 6.998 52.9973 7.074 52.972 7.15C52.8707 7.834 52.4527 8.41667 51.718 8.898C50.9833 9.354 50.0967 9.582 49.058 9.582C48.906 9.582 48.7413 9.582 48.564 9.582C48.412 9.55667 48.2473 9.53133 48.07 9.506C46.6007 9.25267 45.2327 8.88533 43.966 8.404C42.6993 7.92266 41.6353 7.46667 40.774 7.036C39.938 6.60533 39.3933 6.33933 39.14 6.238C38.3293 7.15 37.6073 8.214 36.974 9.43C36.3407 10.646 35.7833 11.8493 35.302 13.04C34.846 14.2307 34.428 15.244 34.048 16.08C34.8333 16.1813 35.682 16.2573 36.594 16.308C37.5313 16.3333 38.4053 16.346 39.216 16.346C39.6213 16.346 39.9887 16.346 40.318 16.346C40.6727 16.3207 40.9767 16.308 41.23 16.308H41.458C41.9647 16.308 42.218 16.3967 42.218 16.574C42.218 16.7513 41.9267 16.916 41.344 17.068C40.964 17.1693 40.318 17.2453 39.406 17.296C38.5193 17.3467 37.5947 17.372 36.632 17.372C36.0493 17.372 35.492 17.3593 34.96 17.334C34.428 17.3087 33.972 17.2707 33.592 17.22C33.06 18.664 32.452 20.1587 31.768 21.704C31.084 23.2493 30.248 24.7567 29.26 26.226C28.2973 27.67 27.132 28.9747 25.764 30.14C24.4213 31.3307 22.8253 32.268 20.976 32.952C19.1267 33.636 16.9733 33.978 14.516 33.978ZM50.3399 29.114C50.0612 29.1393 49.7446 29.076 49.3899 28.924C49.0352 28.772 48.7186 28.4933 48.4399 28.088C48.1866 27.6827 48.0599 27.1127 48.0599 26.378C48.0599 25.77 48.1739 25.0353 48.4019 24.174C48.0979 24.6553 47.7052 25.2507 47.2239 25.96C46.7426 26.644 46.2232 27.252 45.6659 27.784C45.1846 28.24 44.7286 28.5693 44.2979 28.772C43.8672 28.9747 43.4746 29.076 43.1199 29.076C42.4612 29.076 41.9292 28.7847 41.5239 28.202C41.1186 27.594 40.9159 26.8087 40.9159 25.846C40.9159 24.8327 41.1692 23.68 41.6759 22.388C42.1826 21.096 43.0059 19.7533 44.1459 18.36C44.8806 17.4733 45.7672 16.764 46.8059 16.232C47.8699 15.6747 48.9086 15.396 49.9219 15.396C50.5046 15.396 51.0619 15.4973 51.5939 15.7C52.1259 15.8773 52.5946 16.1813 52.9999 16.612C53.1772 16.7893 53.2659 16.992 53.2659 17.22C53.2659 17.372 53.2026 17.4987 53.0759 17.6C52.9492 17.7013 52.7846 17.7267 52.5819 17.676C52.3032 16.7893 51.7079 16.346 50.7959 16.346C50.3652 16.346 49.8712 16.4853 49.3139 16.764C48.4526 17.22 47.5532 17.9673 46.6159 19.006C45.7039 20.0447 44.9059 21.1213 44.2219 22.236C44.1206 22.388 43.9559 22.6793 43.7279 23.11C43.5252 23.5407 43.3226 24.022 43.1199 24.554C42.9172 25.086 42.7779 25.6053 42.7019 26.112C42.6766 26.264 42.6639 26.378 42.6639 26.454C42.6639 26.5047 42.6639 26.5933 42.6639 26.72C42.6639 27.556 42.9806 27.974 43.6139 27.974C44.3739 27.974 45.2352 27.4167 46.1979 26.302C46.8566 25.4913 47.4519 24.6427 47.9839 23.756C48.5159 22.8693 49.0606 21.9193 49.6179 20.906C49.9979 20.222 50.3526 19.652 50.6819 19.196C51.0112 18.74 51.4799 18.512 52.0879 18.512C52.3666 18.512 52.6452 18.55 52.9239 18.626C53.2026 18.702 53.4939 18.7147 53.7979 18.664C53.5952 18.8667 53.3166 19.2467 52.9619 19.804C52.6326 20.3613 52.2779 20.9947 51.8979 21.704C51.5179 22.4133 51.1759 23.1353 50.8719 23.87C50.5679 24.6047 50.3526 25.238 50.2259 25.77C50.2006 25.922 50.1626 26.1373 50.1119 26.416C50.0866 26.6947 50.0739 26.8973 50.0739 27.024C50.0739 27.7333 50.2766 28.088 50.6819 28.088C51.0872 28.088 51.5179 27.8473 51.9739 27.366C52.4552 26.8847 52.9239 26.2893 53.3799 25.58C53.8359 24.8707 54.2539 24.1613 54.6339 23.452C55.0139 22.7173 55.3179 22.122 55.5459 21.666C55.6472 21.4127 55.7992 21.286 56.0019 21.286C56.1286 21.286 56.1919 21.3747 56.1919 21.552C56.1919 21.628 56.1539 21.7673 56.0779 21.97C55.7739 22.6033 55.4066 23.3253 54.9759 24.136C54.5452 24.9213 54.0766 25.694 53.5699 26.454C53.0632 27.1887 52.5312 27.8093 51.9739 28.316C51.4419 28.7973 50.8972 29.0633 50.3399 29.114ZM51.8813 29.304C52.7933 27.4547 53.6673 25.6307 54.5033 23.832C55.3646 22.008 56.2386 20.2727 57.1253 18.626C57.6319 17.714 58.0499 17.0807 58.3793 16.726C58.7339 16.346 59.2026 16.156 59.7853 16.156C59.9879 16.156 60.2033 16.194 60.4313 16.27C60.6593 16.3207 60.8873 16.346 61.1153 16.346C61.2673 16.346 61.3813 16.3333 61.4573 16.308C61.1026 16.5107 60.6466 17.0173 60.0893 17.828C59.5319 18.6133 58.9619 19.5253 58.3793 20.564C57.7966 21.6027 57.2773 22.578 56.8213 23.49C57.3026 22.9073 57.7966 22.3247 58.3033 21.742C58.8353 21.1593 59.4179 20.602 60.0513 20.07C60.6593 19.538 61.3813 18.9933 62.2173 18.436C63.0786 17.8533 63.9146 17.372 64.7253 16.992C65.5359 16.612 66.1819 16.422 66.6633 16.422C66.8406 16.422 66.9673 16.4347 67.0433 16.46C67.0433 16.46 66.9039 16.7133 66.6253 17.22C66.3466 17.7013 65.9919 18.3473 65.5613 19.158C65.1559 19.9433 64.7379 20.792 64.3073 21.704C63.8766 22.5907 63.4839 23.452 63.1293 24.288C62.7999 25.0987 62.5846 25.7827 62.4833 26.34C62.4073 26.6693 62.3693 26.9733 62.3693 27.252C62.3693 27.6573 62.4453 27.9233 62.5973 28.05C62.7493 28.1767 62.9139 28.24 63.0913 28.24C63.5726 28.24 64.0793 27.9867 64.6113 27.48C65.1433 26.948 65.6499 26.302 66.1313 25.542C66.6379 24.782 67.0813 24.0473 67.4613 23.338C67.8666 22.6033 68.1579 22.046 68.3353 21.666C68.4366 21.4633 68.5126 21.3493 68.5633 21.324C68.6139 21.2733 68.6899 21.248 68.7913 21.248C68.9433 21.248 69.0193 21.3493 69.0193 21.552C69.0193 21.6787 68.9813 21.818 68.9053 21.97C68.6013 22.5527 68.2339 23.2493 67.8033 24.06C67.3979 24.8707 66.9293 25.6687 66.3973 26.454C65.8653 27.214 65.2826 27.86 64.6493 28.392C64.0159 28.8987 63.3319 29.152 62.5973 29.152C62.0906 29.152 61.5586 28.9747 61.0013 28.62C60.4693 28.2653 60.2033 27.6067 60.2033 26.644C60.2033 26.3653 60.2286 26.074 60.2793 25.77C60.3299 25.4407 60.4186 25.086 60.5453 24.706C60.7479 24.1993 60.9886 23.6547 61.2673 23.072C61.5459 22.4893 62.0019 21.6913 62.6353 20.678C62.8126 20.3993 62.9139 20.184 62.9393 20.032C62.9899 19.88 63.0153 19.7533 63.0153 19.652C63.0153 19.348 62.8759 19.196 62.5973 19.196C62.3693 19.196 62.0273 19.3227 61.5713 19.576C61.1406 19.8293 60.5959 20.2727 59.9373 20.906C59.3039 21.514 58.5439 22.3753 57.6573 23.49C56.7959 24.6047 55.7953 26.2513 54.6553 28.43C54.4779 28.7593 54.2753 28.9367 54.0473 28.962C53.8446 28.9873 53.5533 29.0127 53.1733 29.038C52.9199 29.0633 52.6793 29.076 52.4513 29.076C52.2233 29.1013 52.0333 29.1773 51.8813 29.304ZM70.1189 29C69.4096 29 68.7762 28.7593 68.2189 28.278C67.6616 27.7713 67.3829 26.986 67.3829 25.922C67.3829 25.086 67.5349 24.06 67.8389 22.844C68.1682 21.6027 68.5609 20.3233 69.0169 19.006C69.4982 17.6633 69.9669 16.4473 70.4229 15.358H68.4089C68.2316 15.358 68.1429 15.2313 68.1429 14.978C68.1429 14.8513 68.1682 14.7373 68.2189 14.636C68.2949 14.5347 68.3962 14.484 68.5229 14.484H70.8029C71.2336 13.5213 71.6896 12.584 72.1709 11.672C72.6522 10.76 73.1209 9.89867 73.5769 9.088C74.1596 8.07467 74.7802 7.31467 75.4389 6.808C76.0976 6.30133 76.6676 6.048 77.1489 6.048C77.5289 6.048 77.8456 6.2 78.0989 6.504C78.3522 6.78267 78.4789 7.21333 78.4789 7.796C78.4789 8.15067 78.4029 8.64467 78.2509 9.278C78.0989 9.886 77.8582 10.532 77.5289 11.216C77.3516 11.5707 77.0982 12.0773 76.7689 12.736C76.4649 13.3947 76.1609 13.9773 75.8569 14.484H77.6809C77.8582 14.484 77.9469 14.6107 77.9469 14.864C77.9469 14.9653 77.9216 15.0793 77.8709 15.206C77.8202 15.3073 77.7442 15.358 77.6429 15.358H75.4009C74.7676 16.4473 74.0456 17.5113 73.2349 18.55C72.4242 19.5887 71.4616 20.6273 70.3469 21.666C70.2709 21.894 70.1696 22.2233 70.0429 22.654C69.9416 23.0847 69.8402 23.528 69.7389 23.984C69.6629 24.4147 69.5869 24.782 69.5109 25.086C69.4602 25.39 69.4349 25.542 69.4349 25.542C69.3589 25.8713 69.3209 26.1753 69.3209 26.454C69.3209 26.986 69.4476 27.3787 69.7009 27.632C69.9542 27.86 70.2456 27.974 70.5749 27.974C70.7776 27.974 70.9802 27.9487 71.1829 27.898C71.3856 27.822 71.6136 27.6953 71.8669 27.518C72.7536 26.8847 73.5262 26.0233 74.1849 24.934C74.8689 23.8447 75.4642 22.7933 75.9709 21.78C76.1229 21.476 76.2749 21.324 76.4269 21.324C76.5282 21.324 76.5789 21.4 76.5789 21.552C76.5789 21.628 76.5409 21.7673 76.4649 21.97C75.9076 23.1353 75.4389 24.0727 75.0589 24.782C74.6789 25.4913 74.3116 26.0867 73.9569 26.568C73.6022 27.024 73.1842 27.48 72.7029 27.936C72.3482 28.2907 71.9429 28.5567 71.4869 28.734C71.0309 28.9113 70.5749 29 70.1189 29ZM73.1209 14.484H75.0589C75.4136 13.8253 75.7429 13.1793 76.0469 12.546C76.3762 11.9127 76.6676 11.2793 76.9209 10.646C77.0982 10.2407 77.2502 9.78467 77.3769 9.278C77.5036 8.77133 77.5669 8.37867 77.5669 8.1C77.5669 7.72 77.4782 7.53 77.3009 7.53C77.1742 7.53 76.9842 7.644 76.7309 7.872C76.5029 8.07467 76.2116 8.42933 75.8569 8.936C75.4009 9.56933 74.9449 10.3927 74.4889 11.406C74.0582 12.394 73.6022 13.42 73.1209 14.484ZM70.6509 20.45C71.3856 19.69 72.0696 18.8793 72.7029 18.018C73.3616 17.1567 73.9696 16.27 74.5269 15.358H72.7409C72.3356 16.2953 71.9556 17.2073 71.6009 18.094C71.2462 18.9807 70.9296 19.766 70.6509 20.45ZM84.1094 29.114C83.8308 29.1393 83.5141 29.076 83.1594 28.924C82.8048 28.772 82.4881 28.4933 82.2094 28.088C81.9561 27.6827 81.8294 27.1127 81.8294 26.378C81.8294 25.77 81.9434 25.0353 82.1714 24.174C81.8674 24.6553 81.4748 25.2507 80.9934 25.96C80.5121 26.644 79.9928 27.252 79.4354 27.784C78.9541 28.24 78.4981 28.5693 78.0674 28.772C77.6368 28.9747 77.2441 29.076 76.8894 29.076C76.2308 29.076 75.6988 28.7847 75.2934 28.202C74.8881 27.594 74.6854 26.8087 74.6854 25.846C74.6854 24.8327 74.9388 23.68 75.4454 22.388C75.9521 21.096 76.7754 19.7533 77.9154 18.36C78.6501 17.4733 79.5368 16.764 80.5754 16.232C81.6394 15.6747 82.6781 15.396 83.6914 15.396C84.2741 15.396 84.8314 15.4973 85.3634 15.7C85.8954 15.8773 86.3641 16.1813 86.7694 16.612C86.9468 16.7893 87.0354 16.992 87.0354 17.22C87.0354 17.372 86.9721 17.4987 86.8454 17.6C86.7188 17.7013 86.5541 17.7267 86.3514 17.676C86.0728 16.7893 85.4774 16.346 84.5654 16.346C84.1348 16.346 83.6408 16.4853 83.0834 16.764C82.2221 17.22 81.3228 17.9673 80.3854 19.006C79.4734 20.0447 78.6754 21.1213 77.9914 22.236C77.8901 22.388 77.7254 22.6793 77.4974 23.11C77.2948 23.5407 77.0921 24.022 76.8894 24.554C76.6868 25.086 76.5474 25.6053 76.4714 26.112C76.4461 26.264 76.4334 26.378 76.4334 26.454C76.4334 26.5047 76.4334 26.5933 76.4334 26.72C76.4334 27.556 76.7501 27.974 77.3834 27.974C78.1434 27.974 79.0048 27.4167 79.9674 26.302C80.6261 25.4913 81.2214 24.6427 81.7534 23.756C82.2854 22.8693 82.8301 21.9193 83.3874 20.906C83.7674 20.222 84.1221 19.652 84.4514 19.196C84.7808 18.74 85.2494 18.512 85.8574 18.512C86.1361 18.512 86.4148 18.55 86.6934 18.626C86.9721 18.702 87.2634 18.7147 87.5674 18.664C87.3648 18.8667 87.0861 19.2467 86.7314 19.804C86.4021 20.3613 86.0474 20.9947 85.6674 21.704C85.2874 22.4133 84.9454 23.1353 84.6414 23.87C84.3374 24.6047 84.1221 25.238 83.9954 25.77C83.9701 25.922 83.9321 26.1373 83.8814 26.416C83.8561 26.6947 83.8434 26.8973 83.8434 27.024C83.8434 27.7333 84.0461 28.088 84.4514 28.088C84.8568 28.088 85.2874 27.8473 85.7434 27.366C86.2248 26.8847 86.6934 26.2893 87.1494 25.58C87.6054 24.8707 88.0234 24.1613 88.4034 23.452C88.7834 22.7173 89.0874 22.122 89.3154 21.666C89.4168 21.4127 89.5688 21.286 89.7714 21.286C89.8981 21.286 89.9614 21.3747 89.9614 21.552C89.9614 21.628 89.9234 21.7673 89.8474 21.97C89.5434 22.6033 89.1761 23.3253 88.7454 24.136C88.3148 24.9213 87.8461 25.694 87.3394 26.454C86.8328 27.1887 86.3008 27.8093 85.7434 28.316C85.2114 28.7973 84.6668 29.0633 84.1094 29.114ZM90.1348 29.152C88.8935 29.152 88.0068 28.8353 87.4748 28.202C86.9681 27.5433 86.7148 26.8593 86.7148 26.15C86.7148 25.5673 86.8541 25.0353 87.1328 24.554C87.4368 24.0727 87.7915 23.8193 88.1968 23.794C88.7035 22.806 89.2481 21.7293 89.8308 20.564C90.4388 19.3987 90.9961 18.2713 91.5028 17.182C91.8575 16.4473 92.3008 15.738 92.8328 15.054C93.3901 14.37 93.9981 13.9773 94.6568 13.876H95.0368C95.2395 13.876 95.4168 13.8887 95.5688 13.914C95.7461 13.9393 95.9235 13.99 96.1008 14.066C96.3795 14.1927 96.5188 14.3827 96.5188 14.636C96.5188 14.788 96.4301 14.864 96.2528 14.864C96.1768 14.864 96.0755 14.826 95.9488 14.75C95.6448 14.6233 95.3788 14.56 95.1508 14.56C94.9988 14.56 94.8595 14.598 94.7328 14.674C94.2515 14.9273 93.9095 15.282 93.7068 15.738C93.5295 16.194 93.4408 16.6753 93.4408 17.182C93.4408 17.5873 93.4788 18.0053 93.5548 18.436C93.6561 18.8413 93.7701 19.2087 93.8968 19.538C94.1755 20.2473 94.4668 20.944 94.7708 21.628C95.1001 22.312 95.2648 23.0467 95.2648 23.832C95.2648 24.592 95.0115 25.4027 94.5048 26.264C93.9981 27.1 93.3521 27.7713 92.5668 28.278L92.8328 28.316C92.9595 28.3413 93.0481 28.354 93.0988 28.354C93.1495 28.354 93.1875 28.354 93.2128 28.354C93.7955 28.354 94.3401 28.1893 94.8468 27.86C95.3788 27.5053 95.8475 27.0747 96.2528 26.568C96.6581 26.0613 97.1141 25.352 97.6208 24.44C98.1528 23.528 98.6595 22.5653 99.1408 21.552C99.2168 21.4253 99.3055 21.362 99.4068 21.362C99.5335 21.362 99.6221 21.4127 99.6728 21.514C99.7488 21.59 99.7615 21.6913 99.7108 21.818C99.3815 22.5273 99.0015 23.3 98.5708 24.136C98.1655 24.9467 97.6968 25.732 97.1648 26.492C96.6328 27.2267 96.0121 27.8347 95.3028 28.316C94.6188 28.772 93.8461 29 92.9848 29C92.7821 29 92.5668 28.9873 92.3388 28.962C92.1108 28.9367 91.8828 28.886 91.6548 28.81C91.4015 28.9113 91.1355 28.9873 90.8568 29.038C90.6035 29.114 90.3628 29.152 90.1348 29.152ZM91.2748 28.012C91.7055 27.6573 92.0855 27.138 92.4148 26.454C92.7695 25.77 92.9468 24.8707 92.9468 23.756C92.9468 22.768 92.8455 21.7167 92.6428 20.602C92.4401 19.4873 92.3388 18.4993 92.3388 17.638C92.3388 17.4607 92.3388 17.3087 92.3388 17.182C92.3641 17.03 92.3895 16.8907 92.4148 16.764C92.0855 17.448 91.7055 18.246 91.2748 19.158C90.8441 20.0447 90.4135 20.906 89.9828 21.742C89.5521 22.578 89.1848 23.2873 88.8808 23.87C88.8808 23.87 88.9441 23.8827 89.0708 23.908C89.2228 23.908 89.3621 23.9967 89.4888 24.174C89.6155 24.326 89.6661 24.6427 89.6408 25.124C89.6155 25.7573 89.7548 26.3527 90.0588 26.91C90.3881 27.442 90.7935 27.8093 91.2748 28.012ZM89.8308 28.544C89.9828 28.544 90.1221 28.5313 90.2488 28.506C90.3755 28.4553 90.4895 28.4173 90.5908 28.392C90.2108 28.1133 89.8688 27.746 89.5648 27.29C89.2861 26.8087 89.1215 26.2007 89.0708 25.466C88.6148 25.9473 88.3868 26.4667 88.3868 27.024C88.3868 27.4293 88.5135 27.784 88.7668 28.088C89.0201 28.392 89.3748 28.544 89.8308 28.544ZM93.8906 41.122C92.5732 41.122 91.6359 40.856 91.0786 40.324C90.5212 39.8173 90.2426 39.2093 90.2426 38.5C90.2426 38.12 90.2932 37.7907 90.3946 37.512C90.4959 37.2333 90.6479 36.8787 90.8506 36.448C91.2052 35.7133 91.6992 35.08 92.3326 34.548C92.9659 34.016 93.6499 33.5853 94.3846 33.256C95.7019 32.648 97.1966 32.154 98.8686 31.774C100.566 31.394 102.187 30.976 103.733 30.52C104.214 29.684 104.657 28.734 105.063 27.67C105.468 26.5807 105.835 25.5293 106.165 24.516C106.494 23.4773 106.76 22.6287 106.963 21.97C106.659 22.5273 106.266 23.2113 105.785 24.022C105.329 24.8073 104.809 25.58 104.227 26.34C103.644 27.1 103.011 27.7333 102.327 28.24C101.668 28.7467 100.971 29 100.237 29C99.9579 29 99.6159 28.9367 99.2106 28.81C98.8306 28.6833 98.4886 28.4553 98.1846 28.126C97.9059 27.7713 97.7666 27.252 97.7666 26.568C97.7666 25.9093 97.9186 25.276 98.2226 24.668C98.5519 24.0347 98.8559 23.4267 99.1346 22.844C99.0586 22.844 98.9699 22.8187 98.8686 22.768C98.7926 22.7173 98.7546 22.6413 98.7546 22.54C98.7546 22.4387 98.7799 22.3373 98.8306 22.236C98.9319 22.0333 99.0459 21.818 99.1726 21.59C99.2992 21.362 99.4132 21.1213 99.5146 20.868C99.8946 20.0827 100.275 19.3353 100.655 18.626C101.035 17.8913 101.364 17.2453 101.643 16.688C101.921 16.1307 102.403 15.852 103.087 15.852H105.443C105.265 16.004 105.037 16.1813 104.759 16.384C104.505 16.5613 104.265 16.84 104.037 17.22C103.353 18.3853 102.757 19.5127 102.251 20.602C101.744 21.666 101.199 22.806 100.617 24.022C100.338 24.6047 100.135 25.1367 100.009 25.618C99.8819 26.0993 99.8186 26.5173 99.8186 26.872C99.8186 27.708 100.097 28.126 100.655 28.126C101.263 28.126 101.997 27.632 102.859 26.644C103.568 25.808 104.277 24.82 104.987 23.68C105.721 22.5147 106.418 21.324 107.077 20.108C107.761 18.8667 108.356 17.7267 108.863 16.688C109.141 16.1307 109.635 15.852 110.345 15.852H112.435C111.7 16.3587 111.13 17.0173 110.725 17.828C110.345 18.6387 109.914 19.6773 109.433 20.944C108.901 22.3373 108.394 23.7813 107.913 25.276C107.457 26.7453 106.937 28.2273 106.355 29.722C107.191 29.4433 108.128 29.0127 109.167 28.43C110.231 27.8473 111.13 27.0113 111.865 25.922C112.447 25.0607 112.941 24.2373 113.347 23.452C113.777 22.6413 114.081 22.0587 114.259 21.704C114.36 21.4507 114.499 21.324 114.677 21.324C114.854 21.324 114.943 21.438 114.943 21.666C114.943 21.7927 114.905 21.932 114.829 22.084C114.17 23.4013 113.575 24.516 113.043 25.428C112.536 26.3147 111.966 27.0873 111.333 27.746C110.725 28.3793 109.977 28.9367 109.091 29.418C108.204 29.9247 107.077 30.4313 105.709 30.938C105.101 32.0273 104.404 33.1547 103.619 34.32C102.859 35.5107 101.985 36.6127 100.997 37.626C100.034 38.6647 98.9572 39.5007 97.7666 40.134C96.6012 40.7927 95.3092 41.122 93.8906 41.122ZM92.9786 40.362C93.8146 40.362 94.6759 40.1087 95.5626 39.602C96.4492 39.0953 97.3106 38.4493 98.1466 37.664C98.9826 36.904 99.7426 36.1187 100.427 35.308C101.136 34.5227 101.706 33.826 102.137 33.218C102.263 33.0407 102.403 32.8127 102.555 32.534C102.707 32.2553 102.859 31.9893 103.011 31.736C101.769 32.0653 100.401 32.42 98.9066 32.8C97.4372 33.2053 96.1579 33.6487 95.0686 34.13C93.8526 34.6367 92.9026 35.3587 92.2186 36.296C91.5092 37.2333 91.1546 38.0693 91.1546 38.804C91.1546 39.26 91.3066 39.6273 91.6106 39.906C91.8892 40.21 92.3452 40.362 92.9786 40.362ZM63.5853 66.596C62.876 66.596 62.1666 66.4313 61.4573 66.102C60.7733 65.7727 60.1273 65.2913 59.5193 64.658C58.6326 63.746 57.8599 62.6567 57.2013 61.39C56.5679 60.098 56.0233 58.7807 55.5673 57.438C55.1113 56.07 54.7566 54.8287 54.5033 53.714C54.2499 52.574 54.0726 51.7 53.9713 51.092C53.0339 52.8907 52.0586 54.6767 51.0453 56.45C50.0573 58.198 48.7906 59.9207 47.2453 61.618C45.7759 63.214 44.1673 64.4173 42.4193 65.228C40.6713 66.064 38.8599 66.482 36.9853 66.482C36.4026 66.482 35.8073 66.444 35.1993 66.368C33.5273 66.1653 32.2986 65.684 31.5133 64.924C30.7279 64.164 30.3353 63.3533 30.3353 62.492C30.3353 61.5547 30.7533 60.706 31.5893 59.946C32.4253 59.186 33.6159 58.806 35.1613 58.806C35.6679 58.806 36.2126 58.8567 36.7953 58.958C37.3779 59.0593 37.9859 59.224 38.6193 59.452C38.8979 59.5533 39.0373 59.6673 39.0373 59.794C39.0373 59.8953 38.9359 59.946 38.7333 59.946C38.6066 59.946 38.5053 59.9333 38.4293 59.908C37.5933 59.604 36.8459 59.452 36.1873 59.452C35.1233 59.452 34.3126 59.7687 33.7553 60.402C33.1979 61.01 32.9193 61.6813 32.9193 62.416C32.9193 63.1253 33.2233 63.784 33.8313 64.392C34.4393 65 35.3766 65.304 36.6433 65.304C38.2393 65.304 39.7086 64.9367 41.0513 64.202C42.3939 63.442 43.6479 62.416 44.8133 61.124C45.9786 59.8067 47.0933 58.3247 48.1573 56.678C49.2213 55.006 50.2599 53.2707 51.2733 51.472C52.9706 48.4573 54.5033 45.7213 55.8713 43.264C57.2646 40.7813 58.7339 38.6787 60.2793 36.956C59.5953 36.88 58.8986 36.8293 58.1893 36.804C57.4799 36.7787 56.7579 36.766 56.0233 36.766C54.4273 36.766 52.7679 36.8547 51.0453 37.032C49.3479 37.184 47.7013 37.4373 46.1053 37.792C43.9519 38.248 42.1026 38.932 40.5573 39.844C39.0119 40.7307 37.7833 41.7313 36.8713 42.846C35.9846 43.9353 35.4273 45.0373 35.1993 46.152C35.1233 46.5573 35.0853 46.95 35.0853 47.33C35.0853 48.622 35.5159 49.6227 36.3773 50.332C37.2386 51.0413 38.2266 51.396 39.3413 51.396C40.0506 51.396 40.7599 51.2567 41.4693 50.978C42.2039 50.674 42.8626 50.2053 43.4453 49.572C43.9266 49.0653 44.2813 48.5967 44.5093 48.166C44.7373 47.71 44.8639 47.368 44.8893 47.14C44.9146 46.7853 44.9906 46.608 45.1173 46.608C45.1933 46.608 45.2566 46.6713 45.3073 46.798C45.3833 46.9247 45.4086 47.0513 45.3833 47.178C45.2819 47.7607 45.1046 48.3307 44.8513 48.888C44.5979 49.4453 44.2939 49.914 43.9393 50.294C43.2299 51.0287 42.4193 51.5733 41.5073 51.928C40.5953 52.2827 39.7213 52.46 38.8853 52.46C37.8973 52.46 36.9599 52.2447 36.0733 51.814C35.2119 51.3833 34.5153 50.7627 33.9833 49.952C33.4513 49.116 33.1853 48.09 33.1853 46.874C33.1853 45.4553 33.6793 44.0113 34.6673 42.542C35.6553 41.0473 37.1373 39.73 39.1133 38.59C41.1146 37.45 43.5973 36.6647 46.5613 36.234C48.0559 36.0313 49.4999 35.8793 50.8933 35.778C52.3119 35.6513 53.6799 35.588 54.9973 35.588C56.0613 35.588 57.0999 35.626 58.1133 35.702C59.1266 35.778 60.1273 35.8793 61.1153 36.006C61.7739 35.322 62.2173 34.98 62.4453 34.98C62.6226 34.98 62.7113 35.1193 62.7113 35.398C62.7113 35.4993 62.6986 35.626 62.6733 35.778C62.6479 35.93 62.6099 36.082 62.5593 36.234C63.2433 36.3353 63.9019 36.4493 64.5353 36.576C65.1939 36.6773 65.7766 36.804 66.2833 36.956C68.2846 37.5133 69.7413 38.248 70.6533 39.16C71.5906 40.0467 72.0593 41.0093 72.0593 42.048C72.0593 43.1627 71.5526 44.2773 70.5393 45.392C69.5513 46.5067 68.1453 47.4947 66.3213 48.356C64.5226 49.2173 62.4073 49.8507 59.9753 50.256C59.1899 50.3827 58.4933 50.4713 57.8853 50.522C57.3026 50.5727 56.7959 50.6107 56.3653 50.636C56.4159 50.8893 56.5299 51.4213 56.7073 52.232C56.8846 53.0427 57.1379 54.0053 57.4673 55.12C57.7966 56.2093 58.2146 57.362 58.7213 58.578C59.2533 59.794 59.8866 60.9467 60.6213 62.036C61.2039 62.8973 61.7993 63.6067 62.4073 64.164C63.0153 64.7213 63.6613 65 64.3453 65C64.7759 65 65.2193 64.886 65.6753 64.658C66.1566 64.43 66.6506 64.0627 67.1573 63.556C67.7653 62.948 68.31 62.264 68.7913 61.504C69.2979 60.7187 69.7286 59.984 70.0833 59.3C70.4379 58.616 70.6786 58.1347 70.8053 57.856C71.0079 57.5013 71.2233 57.324 71.4513 57.324C71.5273 57.324 71.5653 57.3747 71.5653 57.476C71.5653 57.5267 71.5273 57.6533 71.4513 57.856C71.3246 58.1347 71.1346 58.5653 70.8813 59.148C70.628 59.7053 70.324 60.326 69.9693 61.01C69.6146 61.694 69.2346 62.3653 68.8293 63.024C68.4239 63.6827 68.0186 64.24 67.6133 64.696C67.0306 65.3293 66.372 65.798 65.6373 66.102C64.9279 66.4313 64.2439 66.596 63.5853 66.596ZM54.7693 49.61C55.5039 49.4833 56.2893 49.3947 57.1253 49.344C57.9613 49.2933 58.7846 49.2173 59.5953 49.116C60.9126 48.9387 62.1539 48.5967 63.3193 48.09C64.4846 47.558 65.5106 46.9247 66.3973 46.19C67.3093 45.4553 68.0186 44.6827 68.5253 43.872C69.0319 43.036 69.2853 42.238 69.2853 41.478C69.2853 39.7553 68.1326 38.5647 65.8273 37.906C65.3713 37.7793 64.7759 37.6527 64.0413 37.526C63.3319 37.3993 62.6859 37.2853 62.1033 37.184C60.8873 39.2613 59.6333 41.3007 58.3413 43.302C57.0746 45.3033 55.8839 47.406 54.7693 49.61ZM73.5526 65.152C72.6152 65.152 71.7666 64.848 71.0066 64.24C70.2719 63.632 69.9046 62.7073 69.9046 61.466C69.9046 60.326 70.1832 59.11 70.7406 57.818C71.2979 56.5007 72.0072 55.348 72.8686 54.36C73.6032 53.4987 74.4266 52.7893 75.3386 52.232C76.2506 51.6747 77.1119 51.396 77.9226 51.396C78.4799 51.396 78.9612 51.548 79.3666 51.852C79.7972 52.1813 80.0126 52.65 80.0126 53.258C80.0126 53.8913 79.7719 54.588 79.2906 55.348C78.8092 56.108 78.1252 56.8173 77.2386 57.476C76.8586 57.7547 76.3772 58.0207 75.7946 58.274C75.2119 58.5273 74.6292 58.7427 74.0466 58.92C73.4639 59.072 72.9826 59.148 72.6026 59.148C72.4759 59.452 72.3492 59.8573 72.2226 60.364C72.1212 60.8707 72.0706 61.39 72.0706 61.922C72.0706 62.5553 72.1972 63.1253 72.4506 63.632C72.7039 64.1387 73.1726 64.392 73.8566 64.392C74.6926 64.392 75.4526 64.1513 76.1366 63.67C76.8206 63.1887 77.4286 62.5933 77.9606 61.884C78.4926 61.1493 78.9359 60.4147 79.2906 59.68C79.6706 58.9453 79.9746 58.3247 80.2026 57.818C80.3546 57.4633 80.5572 57.286 80.8106 57.286C80.9372 57.286 81.0006 57.3493 81.0006 57.476C81.0006 57.5773 80.9626 57.704 80.8866 57.856C80.5319 58.616 80.1519 59.4267 79.7466 60.288C79.3412 61.124 78.8599 61.922 78.3026 62.682C77.7452 63.4167 77.0739 64.012 76.2886 64.468C75.5286 64.924 74.6166 65.152 73.5526 65.152ZM72.8686 58.464C73.2232 58.464 73.8186 58.3373 74.6546 58.084C75.4906 57.8053 76.2506 57.3747 76.9346 56.792C77.5932 56.2093 78.0999 55.576 78.4546 54.892C78.8092 54.1827 78.9866 53.5873 78.9866 53.106C78.9866 52.5487 78.7839 52.27 78.3786 52.27C78.0746 52.27 77.6566 52.4727 77.1246 52.878C76.5926 53.2833 75.9339 53.9673 75.1486 54.93C74.6672 55.538 74.2112 56.1967 73.7806 56.906C73.3499 57.6153 73.0459 58.1347 72.8686 58.464ZM81.6483 65.266C80.863 65.266 80.3183 65.0633 80.0143 64.658C79.7103 64.2527 79.5583 63.7333 79.5583 63.1C79.5583 62.4413 79.6723 61.694 79.9003 60.858C80.1537 60.022 80.4197 59.1987 80.6983 58.388C80.521 58.6413 80.3437 58.768 80.1663 58.768C80.065 58.768 79.989 58.7173 79.9383 58.616C79.8877 58.5147 79.9003 58.4007 79.9763 58.274C80.103 58.046 80.2297 57.8307 80.3563 57.628C80.483 57.4 80.597 57.172 80.6983 56.944C80.901 56.5133 81.0657 56.0067 81.1923 55.424C81.3443 54.816 81.4203 54.2587 81.4203 53.752C81.4203 53.3467 81.3697 53.0047 81.2683 52.726C81.167 52.4473 81.015 52.2827 80.8123 52.232C80.8123 52.232 80.939 52.2067 81.1923 52.156C81.471 52.1053 81.7623 52.0547 82.0663 52.004C82.3703 51.9533 82.573 51.928 82.6743 51.928C82.8263 51.9027 82.9657 51.89 83.0923 51.89C83.219 51.8647 83.333 51.852 83.4343 51.852C83.6877 51.852 83.8523 51.9533 83.9283 52.156C84.0297 52.3587 84.0677 52.802 84.0423 53.486C84.017 54.1193 83.8903 54.892 83.6623 55.804C83.4343 56.6907 83.1937 57.4633 82.9403 58.122C82.611 58.9833 82.307 59.8573 82.0283 60.744C81.7497 61.6307 81.6103 62.3653 81.6103 62.948C81.6103 63.4547 81.7497 63.784 82.0283 63.936C82.231 64.012 82.4083 64.05 82.5603 64.05C83.143 64.05 83.713 63.7587 84.2703 63.176C84.853 62.5933 85.4103 61.8207 85.9423 60.858C86.4743 59.87 86.9683 58.8187 87.4243 57.704C87.247 57.3493 87.1203 56.9567 87.0443 56.526C86.9683 56.0953 86.9303 55.6773 86.9303 55.272C86.9303 54.7907 86.9937 54.3347 87.1203 53.904C87.4243 52.8907 87.8423 52.1687 88.3743 51.738C88.9317 51.282 89.4003 51.054 89.7803 51.054C90.2617 51.054 90.5023 51.2693 90.5023 51.7C90.5023 51.8013 90.4643 51.9533 90.3883 52.156C90.3377 52.2067 90.3123 52.2827 90.3123 52.384C90.135 52.916 89.869 53.6887 89.5143 54.702C89.185 55.7153 88.767 56.83 88.2603 58.046C87.779 59.2367 87.1963 60.3893 86.5123 61.504C85.8537 62.5933 85.119 63.4927 84.3083 64.202C83.4977 64.9113 82.611 65.266 81.6483 65.266ZM94.5559 49.572C94.1759 49.572 93.8592 49.4453 93.6059 49.192C93.3779 48.9133 93.2639 48.584 93.2639 48.204C93.2639 47.7227 93.4539 47.3047 93.8339 46.95C94.2139 46.5953 94.6319 46.418 95.0879 46.418C95.4932 46.418 95.8225 46.5447 96.0759 46.798C96.3292 47.0513 96.4559 47.3553 96.4559 47.71C96.4559 48.1913 96.2659 48.622 95.8859 49.002C95.5059 49.382 95.0625 49.572 94.5559 49.572ZM91.4779 65C90.5405 65 89.8819 64.734 89.5019 64.202C89.1219 63.6447 88.9319 63.0113 88.9319 62.302C88.9319 61.922 88.9699 61.542 89.0459 61.162C89.1472 60.7567 89.2612 60.3893 89.3879 60.06L91.9339 53.562C92.0099 53.3593 92.0479 53.182 92.0479 53.03C92.0479 52.7767 91.9845 52.5613 91.8579 52.384C91.7312 52.1813 91.6425 52.042 91.5919 51.966L93.6819 51.89C94.0619 51.8647 94.3279 51.9153 94.4799 52.042C94.6572 52.1433 94.7459 52.27 94.7459 52.422C94.7459 52.574 94.6572 52.8527 94.4799 53.258L91.3259 60.668C91.3259 60.668 91.2499 60.8327 91.0979 61.162C90.9712 61.466 90.8952 61.6687 90.8699 61.77C90.7939 62.15 90.7432 62.3907 90.7179 62.492C90.6925 62.5933 90.6799 62.6567 90.6799 62.682C90.6799 62.7073 90.6799 62.8087 90.6799 62.986C90.6799 63.3153 90.7559 63.594 90.9079 63.822C91.0852 64.05 91.3765 64.164 91.7819 64.164C92.0352 64.164 92.3265 64.088 92.6559 63.936C92.9852 63.784 93.2259 63.632 93.3779 63.48C94.0112 62.8213 94.6319 61.96 95.2399 60.896C95.8732 59.8067 96.4559 58.73 96.9879 57.666C97.0892 57.4127 97.2159 57.286 97.3679 57.286C97.4945 57.286 97.5579 57.3747 97.5579 57.552C97.5579 57.6533 97.5199 57.8053 97.4439 58.008C97.1905 58.54 96.8739 59.1987 96.4939 59.984C96.1139 60.7693 95.6579 61.5547 95.1259 62.34C94.6192 63.1 94.0619 63.7333 93.4539 64.24C92.8459 64.7467 92.1872 65 91.4779 65ZM99.6776 65.152C98.7402 65.152 97.8916 64.848 97.1316 64.24C96.3969 63.632 96.0296 62.7073 96.0296 61.466C96.0296 60.326 96.3082 59.11 96.8656 57.818C97.4229 56.5007 98.1322 55.348 98.9936 54.36C99.7282 53.4987 100.552 52.7893 101.464 52.232C102.376 51.6747 103.237 51.396 104.048 51.396C104.605 51.396 105.086 51.548 105.492 51.852C105.922 52.1813 106.138 52.65 106.138 53.258C106.138 53.8913 105.897 54.588 105.416 55.348C104.934 56.108 104.25 56.8173 103.364 57.476C102.984 57.7547 102.502 58.0207 101.92 58.274C101.337 58.5273 100.754 58.7427 100.172 58.92C99.5889 59.072 99.1076 59.148 98.7276 59.148C98.6009 59.452 98.4742 59.8573 98.3476 60.364C98.2462 60.8707 98.1956 61.39 98.1956 61.922C98.1956 62.5553 98.3222 63.1253 98.5756 63.632C98.8289 64.1387 99.2976 64.392 99.9816 64.392C100.818 64.392 101.578 64.1513 102.262 63.67C102.946 63.1887 103.554 62.5933 104.086 61.884C104.618 61.1493 105.061 60.4147 105.416 59.68C105.796 58.9453 106.1 58.3247 106.328 57.818C106.48 57.4633 106.682 57.286 106.936 57.286C107.062 57.286 107.126 57.3493 107.126 57.476C107.126 57.5773 107.088 57.704 107.012 57.856C106.657 58.616 106.277 59.4267 105.872 60.288C105.466 61.124 104.985 61.922 104.428 62.682C103.87 63.4167 103.199 64.012 102.414 64.468C101.654 64.924 100.742 65.152 99.6776 65.152ZM98.9936 58.464C99.3482 58.464 99.9436 58.3373 100.78 58.084C101.616 57.8053 102.376 57.3747 103.06 56.792C103.718 56.2093 104.225 55.576 104.58 54.892C104.934 54.1827 105.112 53.5873 105.112 53.106C105.112 52.5487 104.909 52.27 104.504 52.27C104.2 52.27 103.782 52.4727 103.25 52.878C102.718 53.2833 102.059 53.9673 101.274 54.93C100.792 55.538 100.336 56.1967 99.9056 56.906C99.4749 57.6153 99.1709 58.1347 98.9936 58.464ZM114.841 65.076C114.689 65.076 114.55 65.0633 114.423 65.038C114.322 65.038 114.183 65.0253 114.005 65C113.372 64.8733 112.929 64.5313 112.675 63.974C112.447 63.3913 112.333 62.7707 112.333 62.112C112.333 61.7067 112.359 61.314 112.409 60.934C112.485 60.5287 112.574 60.174 112.675 59.87C112.447 60.2753 112.156 60.7693 111.801 61.352C111.447 61.9093 111.041 62.4667 110.585 63.024C110.129 63.5813 109.648 64.05 109.141 64.43C108.635 64.81 108.115 65 107.583 65C107.051 65 106.557 64.848 106.101 64.544C105.645 64.24 105.354 63.8093 105.227 63.252C105.202 63.1253 105.177 63.0113 105.151 62.91C105.151 62.7833 105.151 62.6693 105.151 62.568C105.151 61.9093 105.303 61.276 105.607 60.668C105.937 60.0347 106.241 59.4267 106.519 58.844C106.443 58.844 106.355 58.8187 106.253 58.768C106.177 58.7173 106.139 58.6413 106.139 58.54C106.139 58.4387 106.165 58.3373 106.215 58.236C106.291 58.1093 106.329 58.0333 106.329 58.008C106.355 57.9573 106.393 57.8687 106.443 57.742C106.519 57.59 106.659 57.3113 106.861 56.906C107.089 56.4247 107.368 55.8547 107.697 55.196C108.052 54.5373 108.356 53.9547 108.609 53.448C108.888 52.9413 109.027 52.688 109.027 52.688C109.306 52.1307 109.787 51.852 110.471 51.852H112.827C112.397 52.1813 112.004 52.5487 111.649 52.954C111.32 53.334 110.902 54.0433 110.395 55.082C110.395 55.082 110.307 55.2593 110.129 55.614C109.952 55.9687 109.724 56.412 109.445 56.944C109.192 57.476 108.926 58.0207 108.647 58.578C108.394 59.1353 108.179 59.6167 108.001 60.022C107.748 60.5793 107.558 61.0987 107.431 61.58C107.305 62.0613 107.241 62.4793 107.241 62.834C107.241 63.7207 107.533 64.164 108.115 64.164C108.521 64.164 108.977 63.9107 109.483 63.404C110.066 62.8467 110.661 62.074 111.269 61.086C111.903 60.0727 112.511 59.0087 113.093 57.894C113.676 56.7793 114.195 55.7533 114.651 54.816C115.107 53.8533 115.449 53.144 115.677 52.688C115.804 52.4093 115.969 52.2067 116.171 52.08C116.399 51.928 116.716 51.852 117.121 51.852H119.439C119.287 52.004 119.059 52.1687 118.755 52.346C118.477 52.5233 118.198 52.84 117.919 53.296C117.565 53.904 117.248 54.474 116.969 55.006C116.691 55.5127 116.311 56.2853 115.829 57.324C115.728 57.552 115.525 57.9953 115.221 58.654C114.943 59.3127 114.677 60.0347 114.423 60.82C114.17 61.6053 114.043 62.3147 114.043 62.948C114.043 63.3533 114.132 63.6827 114.309 63.936C114.487 64.1893 114.778 64.316 115.183 64.316C115.893 64.316 116.564 64.012 117.197 63.404C117.856 62.796 118.477 61.9853 119.059 60.972C119.642 59.9587 120.161 58.8567 120.617 57.666C120.313 56.906 120.161 56.0827 120.161 55.196C120.161 54.664 120.212 54.208 120.313 53.828C120.617 52.84 121.023 52.1307 121.529 51.7C122.036 51.2693 122.479 51.054 122.859 51.054C123.29 51.054 123.505 51.2693 123.505 51.7C123.505 51.8013 123.467 51.9533 123.391 52.156C123.341 52.156 123.315 52.2067 123.315 52.308C123.163 52.8147 122.935 53.5747 122.631 54.588C122.327 55.6013 121.935 56.7033 121.453 57.894C120.972 59.0847 120.402 60.2247 119.743 61.314C119.11 62.4033 118.388 63.3027 117.577 64.012C116.767 64.7213 115.855 65.076 114.841 65.076ZM125.426 65.152C124.184 65.152 123.298 64.8353 122.766 64.202C122.259 63.5433 122.006 62.8593 122.006 62.15C122.006 61.5673 122.145 61.0353 122.424 60.554C122.728 60.0727 123.082 59.8193 123.488 59.794C123.994 58.806 124.539 57.7293 125.122 56.564C125.73 55.3987 126.287 54.2713 126.794 53.182C127.148 52.4473 127.592 51.738 128.124 51.054C128.681 50.37 129.289 49.9773 129.948 49.876H130.328C130.53 49.876 130.708 49.8887 130.86 49.914C131.037 49.9393 131.214 49.99 131.392 50.066C131.67 50.1927 131.81 50.3827 131.81 50.636C131.81 50.788 131.721 50.864 131.544 50.864C131.468 50.864 131.366 50.826 131.24 50.75C130.936 50.6233 130.67 50.56 130.442 50.56C130.29 50.56 130.15 50.598 130.024 50.674C129.542 50.9273 129.2 51.282 128.998 51.738C128.82 52.194 128.732 52.6753 128.732 53.182C128.732 53.5873 128.77 54.0053 128.846 54.436C128.947 54.8413 129.061 55.2087 129.188 55.538C129.466 56.2473 129.758 56.944 130.062 57.628C130.391 58.312 130.556 59.0467 130.556 59.832C130.556 60.592 130.302 61.4027 129.796 62.264C129.289 63.1 128.643 63.7713 127.858 64.278L128.124 64.316C128.25 64.3413 128.339 64.354 128.39 64.354C128.44 64.354 128.478 64.354 128.504 64.354C129.086 64.354 129.631 64.1893 130.138 63.86C130.67 63.5053 131.138 63.0747 131.544 62.568C131.949 62.0613 132.405 61.352 132.912 60.44C133.444 59.528 133.95 58.5653 134.432 57.552C134.508 57.4253 134.596 57.362 134.698 57.362C134.824 57.362 134.913 57.4127 134.964 57.514C135.04 57.59 135.052 57.6913 135.002 57.818C134.672 58.5273 134.292 59.3 133.862 60.136C133.456 60.9467 132.988 61.732 132.456 62.492C131.924 63.2267 131.303 63.8347 130.594 64.316C129.91 64.772 129.137 65 128.276 65C128.073 65 127.858 64.9873 127.63 64.962C127.402 64.9367 127.174 64.886 126.946 64.81C126.692 64.9113 126.426 64.9873 126.148 65.038C125.894 65.114 125.654 65.152 125.426 65.152ZM126.566 64.012C126.996 63.6573 127.376 63.138 127.706 62.454C128.06 61.77 128.238 60.8707 128.238 59.756C128.238 58.768 128.136 57.7167 127.934 56.602C127.731 55.4873 127.63 54.4993 127.63 53.638C127.63 53.4607 127.63 53.3087 127.63 53.182C127.655 53.03 127.68 52.8907 127.706 52.764C127.376 53.448 126.996 54.246 126.566 55.158C126.135 56.0447 125.704 56.906 125.274 57.742C124.843 58.578 124.476 59.2873 124.172 59.87C124.172 59.87 124.235 59.8827 124.362 59.908C124.514 59.908 124.653 59.9967 124.78 60.174C124.906 60.326 124.957 60.6427 124.932 61.124C124.906 61.7573 125.046 62.3527 125.35 62.91C125.679 63.442 126.084 63.8093 126.566 64.012ZM125.122 64.544C125.274 64.544 125.413 64.5313 125.54 64.506C125.666 64.4553 125.78 64.4173 125.882 64.392C125.502 64.1133 125.16 63.746 124.856 63.29C124.577 62.8087 124.412 62.2007 124.362 61.466C123.906 61.9473 123.678 62.4667 123.678 63.024C123.678 63.4293 123.804 63.784 124.058 64.088C124.311 64.392 124.666 64.544 125.122 64.544Z" fill="#CCC5B9"/>
</svg>
