<svg width="24" height="24" viewBox="0 0 24 24" fill="none" xmlns="http://www.w3.org/2000/svg">
<g clip-path="url(#clip0_3_106)">
<path d="M22.6796 1.32019C21.7997 0.440119 20.7397 0 19.5002 0H4.50009C3.26062 0 2.20055 0.440119 1.32031 1.32019C0.440241 2.20043 0.00012207 3.26045 0.00012207 4.49997V19.4999C0.00012207 20.7393 0.440241 21.7995 1.32031 22.6797C2.20055 23.5599 3.26062 24.0001 4.50009 24.0001H19.5C20.7395 24.0001 21.7996 23.5599 22.6794 22.6797C23.5597 21.7995 23.9998 20.7394 23.9998 19.4999V4.49997C23.9997 3.26045 23.5596 2.20027 22.6796 1.32019ZM18.3595 9.23445C18.3699 9.3282 18.3752 9.46858 18.3752 9.6564C18.3752 10.5314 18.2475 11.4091 17.9924 12.289C17.7373 13.1694 17.3466 14.0132 16.8204 14.8204C16.2946 15.6276 15.667 16.3413 14.938 16.9611C14.2087 17.5806 13.3338 18.0756 12.3128 18.4451C11.2922 18.8152 10.1983 19.0002 9.0317 19.0002C7.21934 19.0002 5.54227 18.5103 4.00054 17.5315C4.25054 17.5626 4.51109 17.5783 4.78178 17.5783C6.29226 17.5783 7.65163 17.1096 8.86002 16.1718C8.15179 16.1617 7.51887 15.9431 6.96163 15.5156C6.40423 15.0885 6.01632 14.547 5.79752 13.8907C6.06826 13.9323 6.27135 13.9529 6.40675 13.9529C6.63589 13.9529 6.90159 13.9113 7.20358 13.8282C6.4432 13.6821 5.80266 13.3049 5.28182 12.6955C4.76087 12.086 4.50048 11.3908 4.50048 10.6096V10.5783C5.0524 10.8386 5.57325 10.974 6.06289 10.9845C5.11496 10.349 4.64102 9.43766 4.64102 8.25018C4.64102 7.66678 4.79196 7.11475 5.09405 6.5939C5.91688 7.60439 6.91708 8.41157 8.094 9.01571C9.27102 9.61979 10.5316 9.9585 11.8752 10.0313C11.8232 9.83345 11.7971 9.58334 11.7971 9.28135C11.7971 8.37496 12.1175 7.60166 12.7582 6.96096C13.3986 6.32032 14.1721 5.99989 15.0783 5.99989C16.0368 5.99989 16.8339 6.34374 17.4692 7.03129C18.188 6.89589 18.8862 6.63013 19.5631 6.23445C19.3027 7.03632 18.8181 7.64577 18.1101 8.06246C18.7869 7.96855 19.417 7.79156 20.0002 7.53117C19.5628 8.1978 19.0157 8.76549 18.3595 9.23445Z" fill="#CCC5B9"/>
</g>
<defs>
<clipPath id="clip0_3_106">
<rect width="24" height="24" fill="white"/>
</clipPath>
</defs>
</svg>
